HIERARCHY
ROOT Hips
{
  OFFSET 0 0.240689 0
  CHANNELS 6 Xposition Yposition Zposition Zrotation Xrotation Yrotation
  JOINT Bip01_Spine0
  {
    OFFSET 0 -24.7459 49.7988
    CHANNELS 6 Xposition Yposition Zposition Zrotation Xrotation Yrotation
    JOINT Bip01_Pelvis
    {
      OFFSET 0 0 0
      CHANNELS 6 Xposition Yposition Zposition Zrotation Xrotation Yrotation
      JOINT Bip01_Spine0_Tail
      {
        OFFSET -6.47486 -3.86022 0
        CHANNELS 6 Xposition Yposition Zposition Zrotation Xrotation Yrotation
        JOINT Bip01_Spine0_Tail1
        {
          OFFSET 10.3837 -0.00825882 0
          CHANNELS 6 Xposition Yposition Zposition Zrotation Xrotation Yrotation
          JOINT Bip01_Spine0_Tail2
          {
            OFFSET 10.3837 -0.00826263 0
            CHANNELS 6 Xposition Yposition Zposition Zrotation Xrotation Yrotation
            JOINT Bip01_Spine0_Tail3
            {
              OFFSET 10.3837 -0.00825882 0
              CHANNELS 6 Xposition Yposition Zposition Zrotation Xrotation Yrotation
              JOINT Bip01_Spine0_Tail4
              {
                OFFSET 10.3837 -0.00826263 0
                CHANNELS 6 Xposition Yposition Zposition Zrotation Xrotation Yrotation
                End Site
                {
                  OFFSET 0 0 0
                }
              }
            }
          }
        }
      }
      JOINT Bip01_R_Thigh
      {
        OFFSET 0 -1.52588e-005 -8.75617
        CHANNELS 6 Xposition Yposition Zposition Zrotation Xrotation Yrotation
        JOINT Bip01_R_Calf
        {
          OFFSET 19.7638 0 0
          CHANNELS 6 Xposition Yposition Zposition Zrotation Xrotation Yrotation
          JOINT Bip01_R_Foot
          {
            OFFSET 18.6534 0 0
            CHANNELS 6 Xposition Yposition Zposition Zrotation Xrotation Yrotation
            JOINT Bip01_R_Toe0
            {
              OFFSET 5.09145 13.9567 0
              CHANNELS 6 Xposition Yposition Zposition Zrotation Xrotation Yrotation
              JOINT Bip01_R_Toe01
              {
                OFFSET 4.28803 0 0
                CHANNELS 6 Xposition Yposition Zposition Zrotation Xrotation Yrotation
                JOINT Bip01_R_Toe02
                {
                  OFFSET 3.85801 0 0
                  CHANNELS 6 Xposition Yposition Zposition Zrotation Xrotation Yrotation
                  End Site
                  {
                    OFFSET 0 0 0
                  }
                }
              }
            }
          }
        }
      }
      JOINT Bip01_L_Thigh
      {
        OFFSET 0 1.52588e-005 8.75617
        CHANNELS 6 Xposition Yposition Zposition Zrotation Xrotation Yrotation
        JOINT Bip01_L_Calf
        {
          OFFSET 19.7638 0 0
          CHANNELS 6 Xposition Yposition Zposition Zrotation Xrotation Yrotation
          JOINT Bip01_L_Foot
          {
            OFFSET 18.6534 0 0
            CHANNELS 6 Xposition Yposition Zposition Zrotation Xrotation Yrotation
            JOINT Bip01_L_Toe0
            {
              OFFSET 5.09144 13.9567 0
              CHANNELS 6 Xposition Yposition Zposition Zrotation Xrotation Yrotation
              JOINT Bip01_L_Toe01
              {
                OFFSET 4.28802 0 0
                CHANNELS 6 Xposition Yposition Zposition Zrotation Xrotation Yrotation
                JOINT Bip01_L_Toe02
                {
                  OFFSET 3.85801 0 0
                  CHANNELS 6 Xposition Yposition Zposition Zrotation Xrotation Yrotation
                  End Site
                  {
                    OFFSET 0 0 0
                  }
                }
              }
            }
          }
        }
      }
      JOINT Bip01_Spine
      {
        OFFSET 9.14835 -0.00640869 -1.1e-005
        CHANNELS 6 Xposition Yposition Zposition Zrotation Xrotation Yrotation
        JOINT Bip01_Spine1
        {
          OFFSET 8.04366 -0.00638199 0
          CHANNELS 6 Xposition Yposition Zposition Zrotation Xrotation Yrotation
          JOINT Bip01_Spine2
          {
            OFFSET 8.04367 -0.00639343 0
            CHANNELS 6 Xposition Yposition Zposition Zrotation Xrotation Yrotation
            JOINT Bip01_Spine3
            {
              OFFSET 8.04304 -0.00831222 0
              CHANNELS 6 Xposition Yposition Zposition Zrotation Xrotation Yrotation
              JOINT Bip01_Neck
              {
                OFFSET 10.6685 1.06813 0
                CHANNELS 6 Xposition Yposition Zposition Zrotation Xrotation Yrotation
                JOINT Bip01_R_Clavicle
                {
                  OFFSET -3.21661 -4.89635 -9.04802
                  CHANNELS 6 Xposition Yposition Zposition Zrotation Xrotation Yrotation
                  JOINT Bip01_R_UpperArm
                  {
                    OFFSET 19.0492 0 0
                    CHANNELS 6 Xposition Yposition Zposition Zrotation Xrotation Yrotation
                    JOINT Bip01_R_Forearm
                    {
                      OFFSET 10.3706 0 0
                      CHANNELS 6 Xposition Yposition Zposition Zrotation Xrotation Yrotation
                      JOINT Bip01_R_Hand
                      {
                        OFFSET 22.8632 0 0
                        CHANNELS 6 Xposition Yposition Zposition Zrotation Xrotation Yrotation
                        JOINT Bip01_R_Finger0
                        {
                          OFFSET 6.48259 0.103651 0.504496
                          CHANNELS 6 Xposition Yposition Zposition Zrotation Xrotation Yrotation
                          JOINT Bip01_R_Finger01
                          {
                            OFFSET 3.66847 0 0
                            CHANNELS 6 Xposition Yposition Zposition Zrotation Xrotation Yrotation
                            End Site
                            {
                              OFFSET 0 0 0
                            }
                          }
                        }
                      }
                    }
                  }
                }
                JOINT Bip01_L_Clavicle
                {
                  OFFSET -3.21661 -4.89641 9.04797
                  CHANNELS 6 Xposition Yposition Zposition Zrotation Xrotation Yrotation
                  JOINT Bip01_L_UpperArm
                  {
                    OFFSET 19.0492 0 0
                    CHANNELS 6 Xposition Yposition Zposition Zrotation Xrotation Yrotation
                    JOINT Bip01_L_Forearm
                    {
                      OFFSET 10.3706 0 0
                      CHANNELS 6 Xposition Yposition Zposition Zrotation Xrotation Yrotation
                      JOINT Bip01_L_Hand
                      {
                        OFFSET 22.8631 0 0
                        CHANNELS 6 Xposition Yposition Zposition Zrotation Xrotation Yrotation
                        JOINT Bip01_L_Finger0
                        {
                          OFFSET 6.48257 0.103655 -0.504492
                          CHANNELS 6 Xposition Yposition Zposition Zrotation Xrotation Yrotation
                          JOINT Bip01_L_Finger01
                          {
                            OFFSET 3.66844 0 0
                            CHANNELS 6 Xposition Yposition Zposition Zrotation Xrotation Yrotation
                            End Site
                            {
                              OFFSET 0 0 0
                            }
                          }
                        }
                      }
                    }
                  }
                }
                JOINT Bip01_Neck1
                {
                  OFFSET 7.52459 -0.00656509 0
                  CHANNELS 6 Xposition Yposition Zposition Zrotation Xrotation Yrotation
                  JOINT Bip01_Neck2
                  {
                    OFFSET 8.4783 -0.00588226 0
                    CHANNELS 6 Xposition Yposition Zposition Zrotation Xrotation Yrotation
                    JOINT Bip01_Head
                    {
                      OFFSET 8.41606 0 0
                      CHANNELS 6 Xposition Yposition Zposition Zrotation Xrotation Yrotation
                      JOINT EyesBlue
                      {
                        OFFSET 0 0 0
                        CHANNELS 6 Xposition Yposition Zposition Zrotation Xrotation Yrotation
                        JOINT EyesBlue_2
                        {
                          OFFSET 0 -0.500007 0
                          CHANNELS 6 Xposition Yposition Zposition Zrotation Xrotation Yrotation
                          End Site
                          {
                            OFFSET 0 0 0
                          }
                        }
                      }
                      JOINT Bip01_Head2_Eyeleds
                      {
                        OFFSET 6.52751 7.61746 2.2e-005
                        CHANNELS 6 Xposition Yposition Zposition Zrotation Xrotation Yrotation
                        End Site
                        {
                          OFFSET 0 0 0
                        }
                      }
                      JOINT Bip01_Head_Muzzle
                      {
                        OFFSET 2.88628 13.9448 3.88994
                        CHANNELS 6 Xposition Yposition Zposition Zrotation Xrotation Yrotation
                        End Site
                        {
                          OFFSET 0 0 0
                        }
                      }
                      JOINT Bip01_Head1_Jaw
                      {
                        OFFSET 0.271065 1.32405 0
                        CHANNELS 6 Xposition Yposition Zposition Zrotation Xrotation Yrotation
                        JOINT _Bip01_Head11_TungeControler
                        {
                          OFFSET 4.61616 5.82872 0
                          CHANNELS 6 Xposition Yposition Zposition Zrotation Xrotation Yrotation
                          JOINT _Bip01_Ponytail3_tunge
                          {
                            OFFSET 5.17785 2.98805 0
                            CHANNELS 6 Xposition Yposition Zposition Zrotation Xrotation Yrotation
                            JOINT Bip01_Ponytail31
                            {
                              OFFSET 5.57569 0 0
                              CHANNELS 6 Xposition Yposition Zposition Zrotation Xrotation Yrotation
                              JOINT Bip01_Ponytail32
                              {
                                OFFSET 2.93165 0 0
                                CHANNELS 6 Xposition Yposition Zposition Zrotation Xrotation Yrotation
                                JOINT Bip01_Ponytail3Nub
                                {
                                  OFFSET 3.30155 0 0
                                  CHANNELS 6 Xposition Yposition Zposition Zrotation Xrotation Yrotation
                                  End Site
                                  {
                                    OFFSET 0 0 0
                                  }
                                }
                              }
                            }
                          }
                        }
                        JOINT Bip01_Head_JawNub
                        {
                          OFFSET 15.5776 -0.000389099 0
                          CHANNELS 6 Xposition Yposition Zposition Zrotation Xrotation Yrotation
                          End Site
                          {
                            OFFSET 0 0 0
                          }
                        }
                      }
                      JOINT Bip01_Ponytail2
                      {
                        OFFSET 9.40334 1.03973 -6.51764
                        CHANNELS 6 Xposition Yposition Zposition Zrotation Xrotation Yrotation
                        JOINT Bip01_Ponytail21
                        {
                          OFFSET 2.77018 -0.00640106 1.33514e-005
                          CHANNELS 6 Xposition Yposition Zposition Zrotation Xrotation Yrotation
                          End Site
                          {
                            OFFSET 0 0 0
                          }
                        }
                      }
                      JOINT Bip01_Ponytail1
                      {
                        OFFSET 9.40368 1.03969 6.51768
                        CHANNELS 6 Xposition Yposition Zposition Zrotation Xrotation Yrotation
                        JOINT Bip01_Ponytail11
                        {
                          OFFSET 2.77018 -0.00640487 0
                          CHANNELS 6 Xposition Yposition Zposition Zrotation Xrotation Yrotation
                          End Site
                          {
                            OFFSET 0 0 0
                          }
                        }
                      }
                    }
                  }
                }
              }
            }
          }
        }
      }
    }
  }
}
MOTION
Frames:	4
Frame Time:	0.0333333
0 0 -1e-006 -0 -90 -0 -0.262388 -24.7458 50.4629 90 -3.50835e-015 90 0 0 0 -90 -3.50835e-015 -90 -6.45922 -3.86073 0.440177 133.255 2.8421 -2.67087 10.3791 -0.007041 8.60001e-005 -29.7615 0.000834315 0.00143767 10.3834 -0.008159 8.70001e-005 0.500233 0.000469998 0.000466008 10.3851 -0.00801 7.70001e-005 13.1318 0.00184795 0.0014672 10.3846 -0.008037 5.20001e-005 9.58452 2.39291e-005 2.01366e-005 9.38275e-006 -1.1e-005 -8.75617 -97.4887 -11.9751 173.961 19.7638 2e-006 -1e-006 -60.8869 0.000567394 0.0021926 18.6534 0 0 -27.4939 1.40127 7.5529 5.09143 13.9567 2.31987e-007 114.82 3.10104 1.6679 4.288 -1e-006 2.84217e-014 53.6716 8.43271 1.28952 3.85799 1.82076e-013 1e-006 -45 -8.29407e-006 5.0967e-006 -1.73827e-005 1.1e-005 8.75617 -110.947 -4.43256 -179.21 19.7638 1.06581e-014 5.32907e-015 -63.6029 0.000449518 0.00191724 18.6534 3e-006 -3.73035e-014 -25.4988 1.14737 -5.71888 5.09144 13.9567 -3.87046e-007 115.001 0.000587376 5.00025 4.288 -1e-006 1.77636e-015 51.474 -6.03004 0.26355 3.85799 7.80709e-013 -3e-006 -45 1.41138e-006 -8.17192e-007 9.12709 -0.00638118 -0.622025 0.0457256 0.00353363 3.95435 8.04356 -0.006286 0.000103 0.00127282 0.001273 0.055647 8.04366 -0.006282 0.000106 0.00173685 0.00174899 0.054307 8.04294 -0.008209 2.3e-005 -4.29835 0.00144383 0.054987 10.67 1.06808 1.8727e-006 0.692134 0.00159765 0.00158008 -4.30512 -3.97469 -9.04792 179.264 -85.4175 115.001 19.0492 0 1.42109e-014 89.7461 8.4151 -103.464 10.3706 1e-006 6.57252e-014 -58.5392 0.000324973 0.00113928 22.8631 1.06581e-014 1.77636e-015 -16.6213 -0.170988 2.45031 6.48256 0.103657 0.504496 -78.3091 -0.300473 -15.4962 3.66843 9.99999e-007 5.15144e-014 34.6071 9.96039e-006 6.68224e-006 -4.30497 -3.97453 9.04777 179.262 85.417 -114.998 19.0492 1.77636e-014 3e-006 88.634 -8.31418 99.4941 10.3706 1e-006 -6.75016e-014 -58.5379 0.000817222 0.00290273 22.8631 -7.10542e-015 -1e-006 -16.4592 -8.557 -2.454 6.48256 0.103655 -0.504496 -75.9428 0.956427 15.472 3.66843 -3.50386e-013 -2e-006 40.107 4.59574e-006 -2.76991e-007 7.52553 -0.006641 2.30006e-005 -4.4856 0.000272507 0.000291571 8.47673 -0.006366 0.000104001 15.6203 0.00188814 0.00145115 8.41605 3e-006 7.37188e-013 -74.0211 0.197005 -0.0868799 -7.00001e-006 1e-006 -3e-006 -23.1098 1.37701e-015 90 8.33082e-009 -0.500008 3.79e-006 95.9523 89.9999 -5.95229 0 0 0 -113.549 0.000106812 -180 2.88631 13.9448 3.88993 -22.9892 1.37021e-015 90 0 0 0 -85.3358 -7.01671e-015 -180 0 0 0 -120.289 -1.68349e-006 -1.79606e-005 0 0 0 133.74 0.00144079 -0.000582414 0 0 0 -0.16845 1.69739e-007 2.59066e-008 0 0 0 -22.6319 7.11547e-006 3.32552e-006 0 0 0 -26.1943 1.50273e-006 3.80082e-007 15.5776 -0.000396 -7.00002e-006 -3.18055e-015 -3.97569e-016 1.19271e-015 9.40335 1.03972 -6.51764 -19.0867 17.2452 20.3009 2.77017 -0.006401 2.82636e-010 2.43506 9.17728e-006 -1.76054e-005 9.40368 1.03968 6.51767 -19.0868 -17.2452 -20.3008 2.77017 -0.006408 -1.00041e-006 2.43506 9.40625e-006 -1.78681e-005 
0 0 -1e-006 -0 -90 -0 -0.262388 -24.7526 50.4629 90.0039 0.66791 89.287 0 0 0 -90 -3.50835e-015 -90 -6.45922 -3.86073 0.440177 132.779 2.86414 -2.64722 10.3791 -0.007041 8.60001e-005 -30.2368 0.000822355 0.00144452 10.3834 -0.008159 8.70001e-005 0.0272834 0.000466137 0.000469864 10.3851 -0.00801 7.70001e-005 12.6593 0.0018358 0.00148239 10.3846 -0.008037 5.20001e-005 7.4903 2.32029e-005 2.09726e-005 9e-006 -1.1e-005 -8.75617 -97.1297 -11.8927 173.84 19.7638 2e-006 -1e-006 -61.1213 0.000558472 0.00219492 18.6534 0 -1.06581e-014 -28.9907 1.2024 7.58691 5.09143 13.9567 -8.82339e-008 115.941 3.13305 1.60694 4.288 -1e-006 3.19744e-014 53.6716 8.4327 1.28952 3.85799 1.66089e-013 1e-006 -45 -7.69733e-006 5.6454e-006 -1.7e-005 1.1e-005 8.75617 -110.55 -4.45125 -179.14 19.7638 1.77636e-015 -3.55271e-015 -63.906 0.000439368 0.00191958 18.6534 3e-006 -4.44089e-014 -26.7278 1.27106 -5.69475 5.09144 13.9567 -4.10744e-007 115.952 0.0166957 5.03221 4.288 -1e-006 0 51.474 -6.03004 0.26355 3.85799 7.98472e-013 -3e-006 -45 1.32984e-006 -8.51698e-007 9.12709 -0.006381 -0.622025 0.380509 0.0266732 3.95426 8.04356 -0.006286 0.000103 0.336526 0.0015986 0.0556386 8.04366 -0.006282 0.000106 0.336826 0.00206662 0.0542958 8.04294 -0.008209 2.29997e-005 -3.96221 0.00176796 0.0549778 10.67 1.06808 1.88774e-006 0.75989 0.00159868 0.00157819 -4.30985 -3.96962 -9.04792 179.198 -85.417 115.003 19.0492 5.32907e-015 -2.13163e-014 89.9908 10.0287 -103.55 10.3706 1e-006 6.4393e-014 -57.1103 0.000353155 0.00113067 22.8631 1.42108e-014 3.10863e-015 -16.7522 -0.187271 2.48538 6.48256 0.103657 0.504496 -78.3091 -0.300473 -15.4962 3.66843 9.99999e-007 4.08562e-014 34.6071 9.74447e-006 6.752e-006 -4.30968 -3.96949 9.04777 179.179 85.4169 -114.982 19.0492 3.37508e-014 3e-006 88.8156 -9.93206 99.6027 10.3706 1e-006 -6.39489e-014 -57.1105 0.00088935 0.0028816 22.8631 -3.55271e-015 -1e-006 -16.5959 -8.54976 -2.47916 6.48256 0.103655 -0.504496 -75.9428 0.956427 15.472 3.66843 -3.55271e-013 -2e-006 40.107 4.12965e-006 1.29243e-007 7.52553 -0.006641 2.30004e-005 -4.41771 0.000274827 0.000291384 8.47673 -0.006366 0.000104001 15.6883 0.00189085 0.00144898 8.41605 3e-006 6.7546e-013 -75.565 0.19893 -0.0814534 -7.00001e-006 1e-006 -3e-006 -23.1098 1.37701e-015 90 8.33055e-009 -0.500007 3.79483e-006 95.5776 89.9999 -5.57762 0 0 0 -113.549 9.15528e-005 -180 2.88631 13.9448 3.88993 -22.9892 1.37021e-015 90 0 0 0 -85.3358 -7.01671e-015 -180 0 0 0 -117.976 -2.38341e-006 -1.7806e-005 0 0 0 128.584 0.369867 -0.993044 0 0 0 -0.16845 1.20441e-007 1.61239e-008 0 0 0 -22.6319 5.58701e-006 2.06406e-006 0 0 0 -26.1943 1.41475e-006 -2.80832e-007 15.5776 -0.000396 -7.00002e-006 -5.51738e-033 -7.95139e-016 -3.97569e-016 9.40335 1.03972 -6.51764 -19.0867 17.2452 20.3009 2.77017 -0.006401 3.0067e-010 2.43506 9.18093e-006 -1.75985e-005 9.40368 1.03968 6.51767 -19.0868 -17.2452 -20.3008 2.77017 -0.006408 -1.00043e-006 2.43506 9.40067e-006 -1.7875e-005 
0 0 -1e-006 -0 -90 -0 -0.262388 -24.7597 50.4629 89.9992 0.000390858 88.0761 0 0 0 -90 -3.50835e-015 -90 -6.45922 -3.86073 0.440177 132.319 2.88532 -2.62412 10.3791 -0.007041 8.60001e-005 -30.6974 0.000810705 0.00145108 10.3834 -0.008159 8.70001e-005 -0.431818 0.000462359 0.000473577 10.3851 -0.00801 7.70001e-005 12.2006 0.00182388 0.00149703 10.3846 -0.008037 5.20001e-005 5.36404 2.24305e-005 2.17913e-005 9e-006 -1.1e-005 -8.75617 -96.7821 -11.8128 173.723 19.7638 2e-006 -1e-006 -61.3471 0.000549965 0.00219712 18.6534 0 -3.55271e-015 -30.4437 1.00852 7.61494 5.09143 13.9567 -4.91802e-007 117.028 3.16295 1.54722 4.288 -1e-006 2.4869e-014 53.6716 8.4327 1.28952 3.85799 1.53211e-013 1e-006 -45 -6.87786e-006 6.41024e-006 -1.7e-005 1.1e-005 8.75617 -110.166 -4.4693 -179.072 19.7638 0 5.32907e-015 -64.1984 0.000429567 0.00192179 18.6534 3e-006 -4.26326e-014 -27.9218 1.39222 -5.67157 5.09144 13.9567 -4.17834e-007 116.875 0.0338101 5.06378 4.288 -1e-006 0 51.474 -6.03003 0.26355 3.85799 7.07878e-013 -3e-006 -45 3.18648e-007 -1.86946e-006 9.12709 -0.006381 -0.622025 0.705043 0.0491024 3.95405 8.04356 -0.006286 0.000102999 0.661479 0.00191375 0.0556286 8.04366 -0.006282 0.000105999 0.661615 0.00237429 0.0542832 8.04294 -0.008209 2.29991e-005 -3.63647 0.00208177 0.0549671 10.67 1.06808 1.93948e-006 0.830951 0.00159969 0.00157617 -4.31481 -3.9643 -9.04792 179.128 -85.4164 115.004 19.0492 1.06581e-014 7.10543e-015 90.2218 11.6477 -103.481 10.3706 1e-006 5.9508e-014 -55.7244 0.000380108 0.00112147 22.8631 0 3.55272e-015 -16.8782 -0.203117 2.51914 6.48256 0.103657 0.504496 -78.3091 -0.300473 -15.4962 3.66843 9.99999e-007 4.79616e-014 34.6071 9.92578e-006 6.60016e-006 -4.31462 -3.96419 9.04777 179.091 85.4168 -114.966 19.0492 2.84217e-014 3e-006 88.9817 -11.5631 99.5246 10.3706 1e-006 -6.21725e-014 -55.7263 0.000958873 0.00285957 22.8631 7.10542e-015 -1e-006 -16.7275 -8.54269 -2.50348 6.48256 0.103655 -0.504496 -75.9428 0.956427 15.472 3.66843 -3.44613e-013 -2e-006 40.107 4.51193e-006 -2.45474e-007 7.52553 -0.006641 2.3e-005 -4.3465 0.000277832 0.000291335 8.47673 -0.006366 0.000104001 15.7595 0.00189328 0.00144632 8.41605 3e-006 6.90115e-013 -77.0778 0.200585 -0.0760748 -7.00001e-006 1e-006 -3e-006 -23.1098 1.37701e-015 90 8.33028e-009 -0.500007 3.79956e-006 96.3601 89.9999 -6.36013 0 0 0 -113.549 7.6294e-005 -180 2.88631 13.9448 3.88993 -22.9892 1.37021e-015 90 0 0 0 -85.3358 -7.01671e-015 -180 0 0 0 -115.662 -3.08225e-006 -1.74737e-005 0 0 0 123.538 0.73106 -1.96694 0 0 0 -0.16845 9.88792e-008 9.54203e-009 0 0 0 -22.6319 4.90041e-006 1.21088e-006 0 0 0 -26.1943 1.3904e-006 -8.81074e-007 15.5776 -0.000396 -7.00002e-006 6.36111e-015 3.97569e-016 3.97569e-016 9.40335 1.03972 -6.51764 -19.0867 17.2452 20.3009 2.77017 -0.006401 3.14122e-010 2.43506 9.18401e-006 -1.75934e-005 9.40368 1.03968 6.51767 -19.0868 -17.2452 -20.3008 2.77017 -0.006408 -1.00044e-006 2.43506 9.39614e-006 -1.78803e-005 
0 0 -1e-006 -0 -90 -0 -0.262388 -24.7713 50.4629 90 0.000186872 87.4751 0 0 0 -90 -3.50835e-015 -90 -6.45922 -3.86073 0.440177 132.025 2.89873 -2.60929 10.3791 -0.007041 8.60001e-005 -30.9903 0.000803272 0.00145519 10.3834 -0.008159 8.70001e-005 -0.73155 0.000459876 0.000475984 10.3851 -0.00801 7.70001e-005 11.9006 0.00181602 0.00150656 10.3846 -0.008037 5.20001e-005 2.86905 2.148e-005 2.27122e-005 9e-006 -1.1e-005 -8.75617 -96.5706 -11.7622 173.648 19.7638 2e-006 -1e-006 -61.4731 0.000545194 0.00219834 18.6534 0 7.10543e-015 -31.4022 0.880259 7.63074 5.09143 13.9567 -7.42617e-007 117.729 3.1816 1.50846 4.288 -1e-006 2.84217e-014 53.6716 8.4327 1.28952 3.85799 1.39e-013 1e-006 -45 -6.43512e-006 6.81918e-006 -1.7e-005 1.1e-005 8.75617 -109.932 -4.48036 -179.03 19.7638 -7.10543e-015 0 -64.3675 0.000423895 0.00192304 18.6534 3e-006 -4.61853e-014 -28.7132 1.47076 -5.65199 5.09144 13.9567 -4.28872e-007 117.469 0.0449397 5.08477 4.288 -1e-006 5.32907e-015 51.474 -6.03003 0.26355 3.85799 6.96332e-013 -3e-006 -45 -2.98282e-008 -2.20658e-006 9.12709 -0.006381 -0.622025 0.911396 0.0633639 3.95385 8.04356 -0.006286 0.000102999 0.868187 0.00211396 0.0556213 8.04366 -0.006282 0.000105999 0.868132 0.0025698 0.0542742 8.04294 -0.008209 2.29988e-005 -3.4303 0.00228011 0.0549594 10.67 1.06808 1.96626e-006 0.940289 0.0016016 0.00157309 -4.32237 -3.95607 -9.04792 179.018 -85.4162 115.004 19.0492 0 0 90.3762 12.672 -103.518 10.3706 1e-006 5.15144e-014 -54.8341 0.000397359 0.00111528 22.8631 -7.10543e-015 -4.44089e-015 -16.9476 -0.213592 2.54324 6.48256 0.103657 0.504496 -78.3091 -0.300473 -15.4962 3.66843 1e-006 4.9738e-014 34.6071 9.83761e-006 6.61581e-006 -4.32219 -3.95596 9.04777 178.957 85.4168 -114.941 19.0492 2.13163e-014 3e-006 89.0956 -12.5924 99.5652 10.3706 1e-006 -5.86198e-014 -54.8389 0.00100311 0.00284448 22.8631 1.42109e-014 -1e-006 -16.8002 -8.53748 -2.52119 6.48256 0.103655 -0.504496 -75.9428 0.956427 15.472 3.66843 -3.1708e-013 -2e-006 40.107 4.63254e-006 -3.49098e-007 7.52553 -0.006641 2.29997e-005 -4.23728 0.000280516 0.000291006 8.47673 -0.006366 0.000104001 15.8687 0.001897 0.00144257 8.41605 3e-006 6.66134e-013 -78.2344 0.201224 -0.0718327 -7.00001e-006 1e-006 -3e-006 -23.1098 1.37701e-015 90 8.33069e-009 -0.500007 3.8026e-006 96.8252 89.9999 -6.82516 0 0 0 -113.549 6.10352e-005 -180 2.88631 13.9448 3.88993 -22.9892 1.37021e-015 90 0 0 0 -85.3358 -7.01671e-015 -180 0 0 0 -113.349 -3.73307e-006 -1.72326e-005 0 0 0 119.614 1.01241 -2.72611 0 0 0 -0.16845 8.64402e-008 5.00442e-009 0 0 0 -22.6319 4.49624e-006 6.2175e-007 0 0 0 -26.1943 1.38802e-006 -1.32642e-006 15.5776 -0.000396 -7.00002e-006 6.36111e-015 7.95139e-016 7.95139e-016 9.40335 1.03972 -6.51764 -19.0867 17.2452 20.3009 2.77017 -0.006401 3.23675e-010 2.43506 9.1864e-006 -1.75898e-005 9.40368 1.03968 6.51767 -19.0868 -17.2452 -20.3008 2.77017 -0.006408 -1.00045e-006 2.43506 9.39273e-006 -1.78839e-005 
